HIERARCHY
ROOT hip
{
  OFFSET 0 0 0
  CHANNELS 6 Xposition Yposition Zposition Zrotation Yrotation Xrotation
  JOINT abdomen
  {
    OFFSET 0 20.6881 -0.73152
    CHANNELS 3 Zrotation Xrotation Yrotation
    JOINT chest
    {
      OFFSET 0 11.7043 -0.48768
      CHANNELS 3 Zrotation Xrotation Yrotation
      JOINT neck
      {
        OFFSET 0 22.1894 -2.19456
        CHANNELS 3 Zrotation Xrotation Yrotation
        JOINT head
        {
          OFFSET -0.24384 7.07133 1.2192
          CHANNELS 3 Zrotation Xrotation Yrotation
          JOINT leftEye
          {
            OFFSET 4.14528 8.04674 8.04672
            CHANNELS 3 Zrotation Xrotation Yrotation
            End Site
            {
              OFFSET 1 0 0
            }
          }
          JOINT rightEye
          {
            OFFSET -3.6576 8.04674 8.04672
            CHANNELS 3 Zrotation Xrotation Yrotation
            End Site
            {
              OFFSET 1 0 0
            }
          }
        }
      }
      JOINT rCollar
      {
        OFFSET -2.68224 19.2634 -4.8768
        CHANNELS 3 Zrotation Xrotation Yrotation
        JOINT rShldr
        {
          OFFSET -8.77824 -1.95073 1.46304
          CHANNELS 3 Zrotation Xrotation Yrotation
          JOINT rForeArm
          {
            OFFSET -28.1742 -1.7115 0.48768
            CHANNELS 3 Zrotation Xrotation Yrotation
            JOINT rHand
            {
              OFFSET -22.5879 0.773209 7.07136
              CHANNELS 3 Zrotation Xrotation Yrotation
              JOINT rThumb1
              {
                OFFSET -1.2192 -0.487915 3.41376
                CHANNELS 3 Zrotation Xrotation Yrotation
                JOINT rThumb2
                {
                  OFFSET -3.37035 -0.52449 3.41376
                  CHANNELS 3 Zrotation Xrotation Yrotation
                  End Site
                  {
                    OFFSET -1.78271 -1.18214 1.43049
                  }
                }
              }
              JOINT rIndex1
              {
                OFFSET -7.75947 0.938293 5.60832
                CHANNELS 3 Zrotation Xrotation Yrotation
                JOINT rIndex2
                {
                  OFFSET -2.54057 -0.884171 1.56538
                  CHANNELS 3 Zrotation Xrotation Yrotation
                  End Site
                  {
                    OFFSET -1.62519 -0.234802 1.16502
                  }
                }
              }
              JOINT rMid1
              {
                OFFSET -8.24714 1.18213 3.41376
                CHANNELS 3 Zrotation Xrotation Yrotation
                JOINT rMid2
                {
                  OFFSET -3.10165 -0.590103 1.0647
                  CHANNELS 3 Zrotation Xrotation Yrotation
                  End Site
                  {
                    OFFSET -2.48547 -0.328903 0.83742
                  }
                }
              }
              JOINT rRing1
              {
                OFFSET -8.82822 0.546677 1.51678
                CHANNELS 3 Zrotation Xrotation Yrotation
                JOINT rRing2
                {
                  OFFSET -2.60934 -0.819778 -0.0198488
                  CHANNELS 3 Zrotation Xrotation Yrotation
                  End Site
                  {
                    OFFSET -2.33842 -0.294052 0.168128
                  }
                }
              }
              JOINT rPinky1
              {
                OFFSET -8.27202 -0.0477905 -0.4584
                CHANNELS 3 Zrotation Xrotation Yrotation
                JOINT rPinky2
                {
                  OFFSET -1.82734 -0.647385 -0.700984
                  CHANNELS 3 Zrotation Xrotation Yrotation
                  End Site
                  {
                    OFFSET -1.69225 -0.51767 -0.607171
                  }
                }
              }
            }
          }
        }
      }
      JOINT lCollar
      {
        OFFSET 2.68224 19.2634 -4.8768
        CHANNELS 3 Zrotation Xrotation Yrotation
        JOINT lShldr
        {
          OFFSET 8.77824 -1.95073 1.46304
          CHANNELS 3 Zrotation Xrotation Yrotation
          JOINT lForeArm
          {
            OFFSET 28.1742 -1.7115 0.48768
            CHANNELS 3 Zrotation Xrotation Yrotation
            JOINT lHand
            {
              OFFSET 22.5879 0.773209 7.07136
              CHANNELS 3 Zrotation Xrotation Yrotation
              JOINT lThumb1
              {
                OFFSET 1.2192 -0.487915 3.41376
                CHANNELS 3 Zrotation Xrotation Yrotation
                JOINT lThumb2
                {
                  OFFSET 3.37035 -0.52449 3.41376
                  CHANNELS 3 Zrotation Xrotation Yrotation
                  End Site
                  {
                    OFFSET 1.78271 -1.18214 1.43049
                  }
                }
              }
              JOINT lIndex1
              {
                OFFSET 7.75947 0.938293 5.60832
                CHANNELS 3 Zrotation Xrotation Yrotation
                JOINT lIndex2
                {
                  OFFSET 2.54057 -0.884171 1.56538
                  CHANNELS 3 Zrotation Xrotation Yrotation
                  End Site
                  {
                    OFFSET 1.62519 -0.234802 1.16502
                  }
                }
              }
              JOINT lMid1
              {
                OFFSET 8.24714 1.18213 3.41376
                CHANNELS 3 Zrotation Xrotation Yrotation
                JOINT lMid2
                {
                  OFFSET 3.10165 -0.590103 1.0647
                  CHANNELS 3 Zrotation Xrotation Yrotation
                  End Site
                  {
                    OFFSET 2.48547 -0.328903 0.83742
                  }
                }
              }
              JOINT lRing1
              {
                OFFSET 8.82822 0.546677 1.51678
                CHANNELS 3 Zrotation Xrotation Yrotation
                JOINT lRing2
                {
                  OFFSET 2.60934 -0.819778 -0.0198488
                  CHANNELS 3 Zrotation Xrotation Yrotation
                  End Site
                  {
                    OFFSET 2.33842 -0.294052 0.168128
                  }
                }
              }
              JOINT lPinky1
              {
                OFFSET 8.27202 -0.0477905 -0.4584
                CHANNELS 3 Zrotation Xrotation Yrotation
                JOINT lPinky2
                {
                  OFFSET 1.82734 -0.647385 -0.700984
                  CHANNELS 3 Zrotation Xrotation Yrotation
                  End Site
                  {
                    OFFSET 1.69225 -0.51767 -0.607171
                  }
                }
              }
            }
          }
        }
      }
    }
  }
  JOINT rButtock
  {
    OFFSET -8.77824 4.35084 1.2192
    CHANNELS 3 Zrotation Xrotation Yrotation
    JOINT rThigh
    {
      OFFSET 0 -1.70687 -2.19456
      CHANNELS 3 Zrotation Xrotation Yrotation
      JOINT rShin
      {
        OFFSET 0 -36.8199 0.73152
        CHANNELS 3 Zrotation Xrotation Yrotation
        JOINT rFoot
        {
          OFFSET 0.73152 -45.1104 -5.12064
          CHANNELS 3 Zrotation Xrotation Yrotation
          End Site
          {
            OFFSET -1.1221 -3.69964 12.103
          }
        }
      }
    }
  }
  JOINT lButtock
  {
    OFFSET 8.77824 4.35084 1.2192
    CHANNELS 3 Zrotation Xrotation Yrotation
    JOINT lThigh
    {
      OFFSET 0 -1.70687 -2.19456
      CHANNELS 3 Zrotation Xrotation Yrotation
      JOINT lShin
      {
        OFFSET 0 -36.8199 0.73152
        CHANNELS 3 Zrotation Xrotation Yrotation
        JOINT lFoot
        {
          OFFSET -0.73152 -45.1104 -5.12064
          CHANNELS 3 Zrotation Xrotation Yrotation
          End Site
          {
            OFFSET 1.1221 -3.69964 12.103
          }
        }
      }
    }
  }
}
MOTION
Frames:	8
Frame Time:	0.00833333
9.74543 85.2022 160.606 0.0 0.0 0.0 0.602234 -0.00285576 0.0171682 0.166045 -0.00431803 0.0287693 -1.52729e-14 0.0 -1.61513e-16 -4.58447e-14 3.18055e-15 -4.86091e-16 -0.0 0.0 0.0 -0.0 0.0 0.0 -7.55529e-15 1.84419e-17 4.96962e-17 -1.58713e-13 3.78933e-16 -1.39149e-15 -2.75545e-12 8.42449e-13 9.54166e-15 -3.15639e-11 -7.4589e-13 -4.07111e-13 -7.4451e-11 2.08754e-13 -8.5875e-13 -1.28595e-10 3.62583e-13 -1.47578e-12 -7.44457e-11 2.08724e-13 -8.68291e-13 7.73091 5.47488 0.417314 -7.44508e-11 2.08625e-13 -8.55569e-13 2.90554 0.965183 0.102902 -7.44448e-11 2.08227e-13 -8.56364e-13 10.2786 0.731801 0.0259123 -7.44592e-11 2.11904e-13 -8.49208e-13 2.22167 -0.733487 -0.20892 -7.65224e-15 1.86361e-17 -2.48481e-16 -1.62222e-13 3.60297e-16 -3.37934e-15 -2.76087e-12 -8.1124e-13 -1.59028e-14 -3.15696e-11 9.06036e-13 -3.78486e-13 -7.44683e-11 2.06869e-13 -8.6193e-13 -1.28583e-10 3.62583e-13 -1.48293e-12 -7.44763e-11 2.05543e-13 -8.5875e-13 -7.73091 5.47488 -0.417314 -7.44674e-11 2.06239e-13 -8.65111e-13 -2.90554 0.965183 -0.102902 -7.44726e-11 2.06736e-13 -8.59545e-13 -10.2786 0.731801 -0.0259123 -7.44594e-11 2.09121e-13 -8.71472e-13 -2.22167 -0.733487 0.20892 -2.03217e-16 0.0 -3.88251e-19 0.985576 -4.60217 -0.0812462 -0.0020233 2.78414 -0.00804699 -0.53276 1.81805 0.0982438 2.03217e-16 0.0 3.88251e-19 -0.070043 -2.29253 0.0218583 0.00846581 -1.39933 0.0723263 0.526051 3.69177 -0.136068
10.3024 83.2964 153.753 -176.796 -0.9491 -173.902 1.9936 1.60978 0.899279 0.193351 0.165427 0.329067 -1.16197 0.337099 -1.26743 1.11366 -2.23777 -2.23878 -0.0 0.0 0.0 -0.0 0.0 0.0 1.12862e-14 -2.12066e-14 -4.07664e-16 20.6719 2.09177 -0.777883 -4.21733 -1.91553 6.58804 0.00452476 1.51715 0.212964 -2.6687e-10 -1.27511e-10 2.48925e-10 -4.59608e-10 -2.2086e-10 4.31788e-10 -2.66865e-10 -1.27512e-10 2.48915e-10 7.73091 5.47488 0.417314 -2.6687e-10 -1.27511e-10 2.48927e-10 2.90554 0.965183 0.102902 -2.66864e-10 -1.27512e-10 2.48927e-10 10.2786 0.731801 0.0259123 -2.66876e-10 -1.27509e-10 2.48934e-10 2.22167 -0.733487 -0.20892 1.11951e-14 -2.12068e-14 -7.05841e-16 -22.493 -0.229577 2.30931 2.42679 -0.890539 -3.98964 -0.0335105 4.06269 -0.565801 -2.52949e-10 -8.4035e-11 -5.74277e-10 -4.4397e-10 -1.44686e-10 -9.89891e-10 -2.52956e-10 -8.4036e-11 -5.74272e-10 -7.73091 5.47488 -0.417314 -2.52948e-10 -8.40357e-11 -5.74278e-10 -2.90554 0.965183 -0.102902 -2.52954e-10 -8.40351e-11 -5.74275e-10 -10.2786 0.731801 -0.0259123 -2.52941e-10 -8.40324e-11 -5.74285e-10 -2.22167 -0.733487 0.20892 -2.03217e-16 0.0 -3.88251e-19 3.04634 -6.67166 1.72553 0.0286746 10.1463 0.145009 -0.629538 -1.93412 -0.81918 2.03217e-16 0.0 3.88251e-19 1.58906 -11.1493 1.34181 -0.0219946 11.8967 -0.128106 0.701424 -0.144535 1.79494
10.2878 83.3776 152.828 -176.639 -0.3738 -173.723 3.40648 3.31547 1.81619 0.226721 0.342606 0.641629 -2.3781 0.684442 -2.60481 2.10177 -4.58223 -4.61042 -0.0 0.0 0.0 -0.0 0.0 0.0 3.27589e-14 -4.33264e-14 -1.1865e-15 42.601 4.31488 -1.61227 -8.18984 -3.84869 13.5604 -0.00312879 3.15254 0.443046 -4.81577e-10 -2.82417e-10 5.23433e-10 -8.28941e-10 -4.89195e-10 9.07949e-10 -4.81573e-10 -2.82419e-10 5.23421e-10 7.73091 5.47488 0.417314 -4.81578e-10 -2.82418e-10 5.23434e-10 2.90554 0.965183 0.102902 -4.8157e-10 -2.82418e-10 5.23434e-10 10.2786 0.731801 0.0259123 -4.81581e-10 -2.82416e-10 5.2344e-10 2.22167 -0.733487 -0.20892 3.26745e-14 -4.33272e-14 -1.48467e-15 -46.2541 -0.453987 4.71924 4.85941 -1.81842 -8.21307 0.019184 8.36107 -1.17415 -4.60292e-10 -1.67153e-10 -1.2282e-09 -8.10215e-10 -2.87663e-10 -2.11711e-09 -4.60296e-10 -1.67154e-10 -1.22819e-09 -7.73091 5.47488 -0.417314 -4.6029e-10 -1.67154e-10 -1.2282e-09 -2.90554 0.965183 -0.102902 -4.60297e-10 -1.67153e-10 -1.2282e-09 -10.2786 0.731801 -0.0259123 -4.60284e-10 -1.6715e-10 -1.22821e-09 -2.22167 -0.733487 0.20892 -2.03217e-16 0.0 -3.88251e-19 5.36263 -8.9173 3.6472 0.0161049 17.9912 0.31793 -0.864565 -5.91436 -1.8034 2.03217e-16 0.0 3.88251e-19 3.80601 -20.4882 2.90625 0.0569196 26.1 -0.37415 1.1644 -4.23099 3.80258
10.2849 83.5212 151.936 -176.369 0.402 -173.502 4.62697 4.83041 2.67193 0.242625 0.50486 0.929695 -3.44121 1.00932 -3.80281 2.81464 -6.67219 -6.75719 -0.0 0.0 0.0 -0.0 0.0 0.0 4.89691e-14 -6.36567e-14 -1.32238e-15 62.1868 6.27068 -2.34614 -11.3546 -5.44331 19.8462 -0.0203509 4.55119 0.640689 -6.51708e-10 -3.8295e-10 7.48493e-10 -1.12164e-09 -6.63305e-10 1.29832e-09 -6.51704e-10 -3.82953e-10 7.48481e-10 7.73091 5.47488 0.417314 -6.51709e-10 -3.82951e-10 7.48493e-10 2.90554 0.965183 0.102902 -6.51701e-10 -3.82951e-10 7.48494e-10 10.2786 0.731801 0.0259123 -6.51711e-10 -3.8295e-10 7.485e-10 2.22167 -0.733487 -0.20892 4.88897e-14 -6.36578e-14 -1.62056e-15 -67.4235 -0.684257 6.92836 6.911 -2.61986 -11.9802 0.144868 12.1833 -1.73216 -6.09911e-10 -2.52519e-10 -1.72111e-09 -1.07475e-09 -4.34782e-10 -2.96671e-09 -6.09914e-10 -2.52519e-10 -1.7211e-09 -7.73091 5.47488 -0.417314 -6.0991e-10 -2.5252e-10 -1.7211e-09 -2.90554 0.965183 -0.102902 -6.09917e-10 -2.52519e-10 -1.7211e-09 -10.2786 0.731801 -0.0259123 -6.09905e-10 -2.52515e-10 -1.72111e-09 -2.22167 -0.733487 0.20892 -2.03217e-16 0.0 -3.88251e-19 7.56526 -10.7728 5.39891 -0.0384708 24.87 0.489714 -1.18719 -9.42885 -2.68888 2.03217e-16 0.0 3.88251e-19 6.2814 -28.7984 4.45805 0.255374 38.4869 -0.66519 1.83137 -7.77909 5.70907
10.2595 83.6733 150.905 -176.115 0.7292 -173.636 5.46749 5.87245 3.3671 0.218369 0.629848 1.15649 -4.15137 1.27977 -4.65196 3.2052 -8.16412 -8.30395 -0.0 0.0 0.0 -0.0 0.0 0.0 5.20235e-14 -7.95131e-14 1.49089e-16 75.7881 7.56291 -2.81616 -13.3923 -6.47437 24.3393 -0.0353432 5.35828 0.755283 -7.10399e-10 -3.47549e-10 8.49936e-10 -1.22273e-09 -6.01853e-10 1.4742e-09 -7.10396e-10 -3.47553e-10 8.49924e-10 7.73091 5.47488 0.417314 -7.10401e-10 -3.4755e-10 8.49936e-10 2.90554 0.965183 0.102902 -7.10392e-10 -3.4755e-10 8.49937e-10 10.2786 0.731801 0.0259123 -7.10401e-10 -3.47549e-10 8.49943e-10 2.22167 -0.733487 -0.20892 5.19443e-14 -7.95143e-14 -1.49089e-16 -82.1441 -0.932337 8.6352 8.27045 -3.15476 -14.5957 0.277166 14.8196 -2.13097 -6.15225e-10 -3.43503e-10 -1.81146e-09 -1.08499e-09 -5.92257e-10 -3.12222e-09 -6.15229e-10 -3.43503e-10 -1.81145e-09 -7.73091 5.47488 -0.417314 -6.15223e-10 -3.43504e-10 -1.81146e-09 -2.90554 0.965183 -0.102902 -6.15231e-10 -3.43503e-10 -1.81146e-09 -10.2786 0.731801 -0.0259123 -6.15219e-10 -3.435e-10 -1.81146e-09 -2.22167 -0.733487 0.20892 -2.03217e-16 0.0 -3.88251e-19 9.182 -11.687 6.67084 -0.10112 29.3346 0.621599 -1.4642 -11.789 -3.28984 2.03217e-16 0.0 3.88251e-19 8.31914 -34.6048 5.51073 0.482396 46.3345 -0.927594 2.47052 -10.0178 7.2996
10.2047 83.8109 149.876 -176.048 0.9121 -173.617 5.83304 6.26615 3.83803 0.140043 0.712452 1.29989 -4.37304 1.45855 -5.01558 3.29279 -8.85979 -8.98976 -0.0 0.0 0.0 -0.0 0.0 0.0 3.50359e-14 -9.21624e-14 5.64246e-15 80.9554 7.92208 -2.89206 -14.226 -6.91117 26.2765 -0.0369019 5.34355 0.753283 -6.02595e-10 -6.36562e-11 7.53525e-10 -1.03776e-09 -1.09787e-10 1.30681e-09 -6.02592e-10 -6.36605e-11 7.53513e-10 7.73091 5.47488 0.417314 -6.02596e-10 -6.36575e-11 7.53526e-10 2.90554 0.965183 0.102902 -6.02588e-10 -6.36577e-11 7.53526e-10 10.2786 0.731801 0.0259123 -6.02598e-10 -6.36566e-11 7.53532e-10 2.22167 -0.733487 -0.20892 3.49456e-14 -9.21631e-14 5.34311e-15 -87.849 -1.19873 9.62559 8.76922 -3.34837 -15.5837 0.337119 15.8003 -2.28309 -3.69566e-10 -4.62383e-10 -1.21404e-09 -6.53063e-10 -7.99152e-10 -2.09177e-09 -3.69574e-10 -4.62383e-10 -1.21403e-09 -7.73091 5.47488 -0.417314 -3.69565e-10 -4.62385e-10 -1.21403e-09 -2.90554 0.965183 -0.102902 -3.69571e-10 -4.62384e-10 -1.21404e-09 -10.2786 0.731801 -0.0259123 -3.69559e-10 -4.62381e-10 -1.21404e-09 -2.22167 -0.733487 0.20892 -2.03217e-16 0.0 -3.88251e-19 9.87486 -11.2971 7.2785 -0.123803 30.4253 0.671144 -1.57316 -12.5526 -3.51786 2.03217e-16 0.0 3.88251e-19 9.14487 -36.9744 5.50894 0.550404 47.8354 -0.997872 2.81509 -10.415 8.40204
10.1841 83.9395 148.913 -175.825 1.1544 -173.526 5.87227 6.19728 4.14664 0.0234473 0.764327 1.3836 -4.25018 1.5731 -5.03212 3.20601 -8.99455 -9.05203 -0.0 0.0 0.0 -0.0 0.0 0.0 3.80978e-15 -1.02375e-13 1.39242e-14 80.0892 7.61569 -2.68544 -14.2871 -6.9837 26.3758 -0.0286295 4.74149 0.667933 -3.76363e-10 3.9496e-10 5.16969e-10 -6.49297e-10 6.8506e-10 8.96286e-10 -3.76362e-10 3.94955e-10 5.16958e-10 7.73091 5.47488 0.417314 -3.76365e-10 3.94959e-10 5.16973e-10 2.90554 0.965183 0.102902 -3.76357e-10 3.94958e-10 5.16972e-10 10.2786 0.731801 0.0259123 -3.76369e-10 3.9496e-10 5.16977e-10 2.22167 -0.733487 -0.20892 3.7008e-15 -1.02375e-13 1.3623e-14 -87.1178 -1.47941 10.1049 8.67853 -3.30796 -15.4076 0.326205 15.5994 -2.25207 5.30272e-11 -6.00235e-10 -1.31263e-10 9.05916e-11 -1.03968e-09 -2.24411e-10 5.30132e-11 -6.00234e-10 -1.31256e-10 -7.73091 5.47488 -0.417314 5.30282e-11 -6.00237e-10 -1.31261e-10 -2.90554 0.965183 -0.102902 5.30239e-11 -6.00237e-10 -1.31265e-10 -10.2786 0.731801 -0.0259123 5.3036e-11 -6.00235e-10 -1.31269e-10 -2.22167 -0.733487 0.20892 -2.03217e-16 0.0 -3.88251e-19 9.88037 -9.98183 7.40703 -0.106407 29.1061 0.654764 -1.53607 -12.177 -3.46937 2.03217e-16 0.0 3.88251e-19 8.97012 -36.8943 4.65114 0.461378 44.8031 -0.894415 2.8664 -9.51115 9.13773
10.1948 84.0447 147.926 -175.442 1.2741 -173.574 5.76707 5.92619 4.38027 -0.109337 0.788308 1.4396 -4.00275 1.68881 -4.90474 3.07853 -8.88332 -8.85535 -0.0 0.0 0.0 -0.0 0.0 0.0 -3.05136e-14 -1.06724e-13 2.04869e-14 76.8156 7.05433 -2.39252 -14.0468 -6.91638 25.7394 -0.0187798 3.89457 0.548178 -1.1953e-10 8.3037e-10 2.6402e-10 -2.07977e-10 1.43969e-09 4.57277e-10 -1.1953e-10 8.30366e-10 2.6401e-10 7.73091 5.47488 0.417314 -1.19532e-10 8.3037e-10 2.64026e-10 2.90554 0.965183 0.102902 -1.19524e-10 8.30369e-10 2.64024e-10 10.2786 0.731801 0.0259123 -1.19538e-10 8.30371e-10 2.64029e-10 2.22167 -0.733487 -0.20892 -3.06372e-14 -1.06723e-13 2.01852e-14 -83.8124 -1.77971 10.4012 8.35837 -3.17744 -14.7792 0.287632 14.9237 -2.14779 4.68086e-10 -7.13628e-10 9.46931e-10 8.21077e-10 -1.23779e-09 1.63491e-09 4.68066e-10 -7.13627e-10 9.46935e-10 -7.73091 5.47488 -0.417314 4.68086e-10 -7.13631e-10 9.46931e-10 -2.90554 0.965183 -0.102902 4.68084e-10 -7.13631e-10 9.46926e-10 -10.2786 0.731801 -0.0259123 4.68096e-10 -7.13629e-10 9.46922e-10 -2.22167 -0.733487 0.20892 -2.03217e-16 0.0 -3.88251e-19 9.57003 -8.30851 7.29052 -0.0759634 26.8136 0.611778 -1.41983 -11.3262 -3.22502 2.03217e-16 0.0 3.88251e-19 8.43041 -35.7936 3.44673 0.339352 39.9473 -0.747142 2.77566 -8.15206 9.71282
